<?xml version="1.0" encoding="utf-8"?>
<!-- Generator: Adobe Illustrator 23.0.6, SVG Export Plug-In . SVG Version: 6.00 Build 0)  -->
<svg version="1.1" id="Layer_1" xmlns="http://www.w3.org/2000/svg" xmlns:xlink="http://www.w3.org/1999/xlink" x="0px" y="0px"
	 viewBox="0 0 59.9 8.5" style="enable-background:new 0 0 59.9 8.5;" xml:space="preserve">
<g>
	<g>
		<path d="M6.2,7.2v0.7L5.5,8.1l0.3-1.8h0.7l0,1.7C5.7,8.4,4.9,8.6,4,8.6c-2.4,0-4-1.8-4-4.2C0,2,1.7,0.2,4,0.2
			c0.6,0,1.5,0.1,2.3,0.6l0,1.7H5.7L5.4,0.8l0.7,0.2v0.7C5.4,1,4.7,0.8,4.2,0.8c-1.6,0-2.9,1.3-2.9,3.6S2.4,8,4.1,8
			C4.8,8,5.5,7.8,6.2,7.2z"/>
		<path d="M14.9,4.4c0,2.6-1.8,4.2-3.7,4.2S7.6,7.1,7.6,4.4c0-2.6,1.8-4.2,3.7-4.2S14.9,1.7,14.9,4.4z M11.2,8
			c1.7,0,2.4-1.8,2.4-3.6s-0.7-3.6-2.4-3.6S8.8,2.6,8.8,4.4S9.6,8,11.2,8z"/>
		<path d="M16,0.9V0.4h1.7V1h-0.1L16,0.9z M17.8,7.8l1.6,0.2v0.5H16V7.9l1.6-0.2H17.8z M17.2,4.1c0-1.2,0-2.5,0-3.7h1.2
			c0,1.3,0,2.4,0,3.8v0.4c0,1.4,0,2.6,0,3.8h-1.2c0-1.2,0-2.5,0-3.7V4.1z M17.7,4.2h1.5c1.3,0,1.9-0.7,1.9-1.7c0-1-0.5-1.6-1.8-1.6
			h-1.6V0.4h1.6c1.8,0,2.9,0.8,2.9,2.1c0,1-0.8,1.9-2.4,2.1l0-0.1c0.9,0.1,1.4,0.5,1.7,1.6l0.6,2l-0.4-0.2l1.2,0.1v0.5
			c-0.2,0.1-0.5,0.1-0.9,0.1c-0.7,0-1.1-0.2-1.2-0.7l-0.5-2c-0.2-1-0.7-1.1-1.7-1.1h-1.1L17.7,4.2L17.7,4.2z"/>
		<path d="M25,1l-1.6-0.2V0.4h3.2v0.5L25.3,1H25z M24.2,0.4h1.2l2.4,6.8h-0.3l2.3-6.8h0.7l-2.8,8.1h-0.5L24.2,0.4z M29.7,1l-1.2-0.1
			V0.4h2.8v0.5L29.9,1H29.7z"/>
		<path d="M31.9,0.9V0.4h1.7V1h-0.1L31.9,0.9z M33.6,7.8v0.7h-1.7V7.9l1.6-0.2H33.6z M33,4.1c0-1.2,0-2.5,0-3.7h1.2
			c0,1.2,0,2.5,0,3.7v0.5c0,1.4,0,2.6,0,3.9H33c0-1.2,0-2.5,0-3.7V4.1z M36.9,0.4L37.5,1h-3.9V0.4h4.3L38,2.5h-0.7L36.9,0.4z
			 M36.3,4.6h-2.7V4h2.7V4.6z M38.2,6.3l-0.1,2.1h-4.5V7.8h4.1l-0.5,0.6l0.4-2.1H38.2z M35.9,4.2l0.2-1.3h0.5v2.8h-0.5l-0.2-1.3V4.2
			z"/>
		<path d="M39.4,1l0.5-0.6l-0.4,2.1h-0.7L39,0.4h6.5l0.1,2.1h-0.7l-0.4-2.1L45.1,1H39.4z M42.3,7.8L44,7.9v0.5h-3.6V7.9l1.7-0.2
			H42.3z M41.7,4.1c0-1.2,0-2.5,0-3.7h1.2c0,1.2,0,2.5,0,3.7v0.6c0,1.2,0,2.5,0,3.7h-1.2c0-1.2,0-2.5,0-3.7V4.1z"/>
		<path d="M46.6,1l0.5-0.6l-0.4,2.1h-0.7l0.1-2.1h6.6l0.1,2.1h-0.7l-0.4-2.1L52.3,1H46.6z M49.6,7.8l1.7,0.2v0.5h-3.6V7.9l1.7-0.2
			H49.6z M48.9,4.1c0-1.2,0-2.5,0-3.7H50c0,1.2,0,2.5,0,3.7v0.6c0,1.2,0,2.5,0,3.7h-1.2c0-1.2,0-2.5,0-3.7V4.1z"/>
		<path d="M53.6,0.9V0.4h1.7V1h-0.1L53.6,0.9z M55.3,7.8v0.7h-1.7V7.9l1.6-0.2H55.3z M54.7,4.1c0-1.2,0-2.5,0-3.7h1.2
			c0,1.2,0,2.5,0,3.7v0.5c0,1.4,0,2.6,0,3.9h-1.2c0-1.2,0-2.5,0-3.7L54.7,4.1L54.7,4.1z M58.6,0.4L59.1,1h-3.9V0.4h4.3l0.1,2.1H59
			L58.6,0.4z M58,4.6h-2.7V4H58V4.6z M59.9,6.3l-0.1,2.1h-4.5V7.8h4.1l-0.5,0.6l0.4-2.1H59.9z M57.6,4.2l0.2-1.3h0.5v2.8h-0.5
			l-0.2-1.3V4.2z"/>
	</g>
</g>
</svg>
